<?xml version="1.0" encoding="utf-8"?>
<!-- Generator: Adobe Illustrator 15.1.0, SVG Export Plug-In . SVG Version: 6.00 Build 0)  -->
<!DOCTYPE svg PUBLIC "-//W3C//DTD SVG 1.1//EN" "http://www.w3.org/Graphics/SVG/1.1/DTD/svg11.dtd">
<svg version="1.1" id="Layer_1" xmlns="http://www.w3.org/2000/svg" xmlns:xlink="http://www.w3.org/1999/xlink" x="0px" y="0px"
	 width="1024px" height="818px" viewBox="0 0 1024 818" enable-background="new 0 0 1024 818" xml:space="preserve">
<path fill="#FFFFFF" d="M775.266,281.38L627.02,481.704c-68.558,95.863-121.382,143.8-158.478,143.8
	c-17.224,0-32.492-9.868-45.851-29.606c-13.358-19.745-27.001-49.778-40.949-90.142c-13.966-40.354-23.755-70.932-29.385-91.734
	c-5.751-21.588-10.635-38.997-14.703-52.217c-2.693-8.796-15.368-8.051-17.128,0.963l-16.696,85.106
	c-7.125,37.391-14.402,71.755-21.819,103.046c-7.415,31.34-15.503,68.964-24.266,112.87c-8.75,43.924-14.166,77.023-16.244,99.274
	c-0.595,7.422-7.636,15.432-21.146,24.034c-13.504,8.596-23.825,12.902-30.934,12.902c-14.254,0-27.537-6.61-39.856-19.806
	c-12.311-13.203-18.472-25.885-18.472-38.058c0-28.493,5.948-64.684,17.819-108.615c48.967-179.866,76.931-293.081,83.926-339.693
	c6.949-46.572,10.451-85.301,10.451-116.172c0-16.035,6.958-28.341,20.923-36.953c13.945-8.596,32.187-12.918,54.748-12.918
	c12.159,0,24.333,8.009,36.513,24.061c12.152,16.018,20.178,30.862,24.04,44.501l-0.453-0.888l61.89,173.172
	c20.072,56.39,34.717,96.007,43.965,118.836c2.455,6.081,10.459,7.489,14.799,2.588c31.672-35.847,76.039-92.772,133.091-170.835
	c62.932-85.752,105.953-140.953,129.109-165.624c23.14-24.622,39.463-36.944,48.964-36.944c14.543,0,30.719,6.098,48.522,18.271
	c17.814,12.173,26.711,22.553,26.711,31.165c0,6.526-5.797,51.204-17.342,133.991c-8.025,58.466-15.301,123.903-21.818,196.312
	c-6.53,72.423-9.803,115.157-9.803,128.209c0,16.044,2.083,32.514,6.242,49.437c2.944,13.06,4.437,25.367,4.437,36.919
	c0,29.396-5.115,49.438-15.366,60.117c-10.235,10.683-26.02,16.026-47.407,16.026c-38.872,0-58.296-29.22-58.296-87.695
	c0-55.2,5.027-122.657,15.117-202.343c10.091-79.672,19.294-140.885,27.604-183.637C772.438,297.992,774.391,287.336,775.266,281.38
	"/>
<path fill="#FFFFFF" d="M552.1,196.985c4.662,13.455-2.48,28.132-15.921,32.807c-13.45,4.64-28.137-2.488-32.794-15.943
	c-4.658-13.446,2.463-28.132,15.921-32.79C532.765,176.401,547.454,183.531,552.1,196.985"/>
<path fill="#83D5F7" d="M647.335,325.596c-0.233,0.394-44.665,108.875-106.755,114.253c-47.483,4.098-88.726-32.697-91.985-80.232
	c-3.243-47.551,32.668-88.734,80.232-91.993c7.087-0.478,14.02-0.076,20.709,1.105c8.429-3.56,20.784-12.332,31.349-33.913
	c18.029-36.835,49.512-24.763,76.714,2.874C684.795,265.311,677.282,273.506,647.335,325.596"/>
<path fill="#FFFFFF" d="M647.335,325.596c-23.062,48.13-54.084,112.955-114.604,117.371
	c-63.595,2.496-109.236-70.029-81.933-127.289c16.45-37.171,59.732-59.925,99.534-51.573l-2.614,0.294
	c29.075-9.208,30.809-59.255,66.895-54.765c21.1,3.292,36.519,18.992,49.868,34.214c6.493,7.431,12.395,17.468,10.079,27.931
	C671.052,289.28,655.697,310.006,647.335,325.596 M647.335,325.596c7.905-15.573,22.931-36.802,26.072-54.001
	c1.976-10.07-3.74-19.319-10.288-26.6c-13.062-13.856-29.552-28.583-48.945-30.637c-22.846-1.826-28.211,21.279-38.768,37.298
	c-5.978,8.611-13.73,16.653-24.044,21.354c-83.122-12.098-132.009,88.19-68.277,144.681
	C555.715,477.968,620.712,388.419,647.335,325.596"/>
<path fill="#FFFFFF" d="M793.721,138.978c4.659,13.455-2.475,28.14-15.931,32.79c-13.439,4.666-28.126-2.48-32.788-15.918
	c-4.659-13.446,2.475-28.14,15.917-32.798C774.373,118.403,789.076,125.532,793.721,138.978"/>
<path fill="#FFFFFF" d="M617.093,273.781c-68.997-13.512-113.985-80.39-100.464-149.387
	c13.513-68.998,80.399-113.985,149.397-100.464c69.006,13.521,113.988,80.399,100.467,149.397
	C752.978,242.323,686.091,287.312,617.093,273.781"/>
<path fill="#2CE0FD" d="M617.093,273.806c-0.405-0.108-0.177-0.026,0.976,0.118l0.813,0.1L617.093,273.806z"/>
<path fill="#2CE0FD" d="M624.816,274.896c1.35,0.167,2.924,0.31,2.062,0.117c-1.721-0.159-1.081-0.109-3.119-0.293
	c-1.152-0.159-1.999-0.277-1.812-0.277c-0.934-0.142-0.167-0.024-2.399-0.31c2.989,0.418,2.701,0.377,5.361,0.746
	C625.329,274.946,624.922,274.896,624.816,274.896"/>
<path fill="#2CE0FD" d="M729.952,242.055l-0.616,0.403C729.508,242.365,729.717,242.223,729.952,242.055"/>
<path fill="#2CE0FD" d="M767.097,182.223c-0.104,0.537-0.037,0.796,0.081,0.854C767.215,182.566,767.243,182.131,767.097,182.223"/>
<path fill="#2CE0FD" d="M771.482,170.562c-0.092,0.285-0.143,0.486-0.21,0.704C771.441,171.022,771.575,170.745,771.482,170.562"/>
<path fill="#2CE0FD" d="M729.952,242.055l1.611-1.081C731.455,240.69,730.697,241.487,729.952,242.055"/>
<path fill="#2CE0FD" d="M640.399,275.65c-0.264,0-0.591,0.017-1.01,0.017h0.955L640.399,275.65z"/>
<polygon fill="#2CE0FD" points="705.002,260.804 704.509,261.098 704.22,261.567 "/>
<path fill="#2CE0FD" d="M683.016,270.347c0.512-0.152,0.562-0.629,0.68-0.863c-0.223,0.251-0.575,0.486-1.006,0.67
	C682.689,270.154,682.806,270.297,683.016,270.347"/>
<path fill="#2CE0FD" d="M645.71,276.202l-0.665,0.05C645.241,276.236,645.488,276.227,645.71,276.202"/>
<path fill="#2CE0FD" d="M719.583,251.648c0.081,0.051,0.209,0.066,0.314,0.066C719.897,251.714,719.742,251.631,719.583,251.648"/>
<path fill="#2CE0FD" d="M599.811,244.896c-0.14,0.301-0.235,0.51-0.336,0.771C599.776,245.281,599.935,244.971,599.811,244.896"/>
<polygon fill="#2CE0FD" points="616.845,275.063 616.418,275.231 615.802,277.928 "/>
<path fill="#2CE0FD" d="M775.71,147.917l-0.025,0.109C775.789,148.621,775.789,148.294,775.71,147.917"/>
<path fill="#2CE0FD" d="M638.828,10.626c2.46,2.278-3.875,3.2-0.185,5.68C638.263,15.292,641.915,12.058,638.828,10.626"/>
<path fill="#2CE0FD" d="M641.011,275.667l0.984,0.033C641.497,275.699,641.312,275.667,641.011,275.667"/>
<polygon fill="#2CE0FD" points="638.644,16.306 638.644,16.322 639.009,16.573 "/>
<path fill="#2CE0FD" d="M765.317,95.876c-0.209,0.209-0.34,0.486-0.444,0.796C765.003,96.579,765.162,96.386,765.317,95.876"/>
<path fill="#2CE0FD" d="M772.357,134.63l0.067-0.963C772.334,134.044,772.334,134.371,772.357,134.63"/>
<path fill="#2CE0FD" d="M753.891,78.701c-0.143-0.519-0.014-0.837-0.604-1.289l-0.063,0.284
	C753.563,77.789,753.84,78.023,753.891,78.701"/>
<polygon fill="#2CE0FD" points="741.55,61.469 741.521,62.031 742.019,62.458 "/>
<path fill="#2CE0FD" d="M556.732,216.713c-0.746,1.073-1.667,2.128-2.584,3.125C556.414,217.669,558.859,218.967,556.732,216.713"/>
<path fill="#2CE0FD" d="M640.399,275.717c0.13-0.026,0.313-0.05,0.611-0.05h-0.666C640.345,275.667,640.266,275.699,640.399,275.717
	"/>
<path fill="#2CE0FD" d="M741.168,85.756l-1.398-2.682C740.083,83.887,740.578,84.859,741.168,85.756"/>
<path fill="#2CE0FD" d="M541.041,97.342l0.104,0.795C541.331,97.954,541.331,97.694,541.041,97.342"/>
<path fill="#2CE0FD" d="M734.01,76.272c0.184-0.837,0.155-1.549,0-2.152c-0.197,0-0.394-0.05-0.603,0.042L734.01,76.272z"/>
<path fill="#2CE0FD" d="M554.119,219.88l0.029-0.042L554.119,219.88z"/>
<path fill="#2CE0FD" d="M510.505,196.741c0.138,0.101,0.327,0.117,0.418,0.31c0.26-0.368,0.478-0.653,0.679-0.913l-1.349,0.075
	L510.505,196.741z"/>
<path fill="#2CE0FD" d="M729.218,242.533l0.118-0.059c-0.118,0.052-0.272,0.102-0.272,0.102L729.218,242.533z"/>
<polygon fill="#2CE0FD" points="540.221,103.532 539.392,103.164 539.915,103.91 "/>
<path fill="#2CE0FD" d="M700.998,260.218c0,0-0.209,0-0.456,0.067C700.542,260.285,700.775,260.268,700.998,260.218"/>
<path fill="#2CE0FD" d="M688.055,266.217l-1.952,0.586C687.069,266.518,687.623,266.359,688.055,266.217"/>
<path fill="#2CE0FD" d="M677.688,269.827c-0.104,0.1-0.159,0.209-0.159,0.209h0.018L677.688,269.827z"/>
<path fill="#2CE0FD" d="M762.544,136.423l-0.104-0.418C762.058,135.116,762.268,135.728,762.544,136.423"/>
<path fill="#2CE0FD" d="M761.128,187.04c-0.025-0.562-0.05-1.139,0.014-1.726C760.764,186.161,760.499,186.814,761.128,187.04"/>
<polygon fill="#2CE0FD" points="741.323,86.049 741.365,86.031 741.156,85.756 "/>
<path fill="#2CE0FD" d="M761.705,182.994c-0.443,0.838-0.553,1.583-0.563,2.32C761.392,184.602,761.705,183.782,761.705,182.994"/>
<polygon fill="#2CE0FD" points="630.555,275.414 630.02,275.39 629.952,275.414 "/>
<path fill="#2CE0FD" d="M629.961,275.414l-0.591-0.092C629.554,275.34,629.604,275.365,629.961,275.414"/>
<path fill="#2CE0FD" d="M628.135,275.205l1.235,0.135C629.102,275.314,629.018,275.314,628.135,275.205"/>
<path fill="#2CE0FD" d="M645.163,275.582l0.158-0.074C645.229,275.532,645.163,275.582,645.163,275.582"/>
<path fill="#2CE0FD" d="M649.585,275.222c-0.889,0.05-2.669,0.151-4.121,0.218l-0.143,0.067
	C646,275.365,648.592,275.432,649.585,275.222"/>
<path fill="#2CE0FD" d="M668.146,273.933l-3.717,0.485c0.667,0.024,1.554,0.059-0.13,0.327
	C669.037,274.41,663.305,274.687,668.146,273.933"/>
<path fill="#2CE0FD" d="M679.494,271.334c-1.948,0.538,0.091,0.177,0.012,0.311C680.687,271.134,680.959,271.01,679.494,271.334"/>
<path fill="#2CE0FD" d="M747.305,223.306l0.553,0.629C748.721,222.629,747.594,223.751,747.305,223.306"/>
<path fill="#2CE0FD" d="M751.838,207.381l-1.152,1.047l0.377,1.022C751.365,208.763,751.653,208.11,751.838,207.381"/>
<polygon fill="#2CE0FD" points="762.046,201.751 761.86,202.429 762.736,199.908 "/>
<path fill="#2CE0FD" d="M745.37,63.228l-1.387,1.769C744.926,65.641,746.965,64.267,745.37,63.228"/>
<path fill="#2CE0FD" d="M694.036,26.325c-0.079-1.583-1.466-2.999-2.986-2.187C692.336,24.792,693.278,26.241,694.036,26.325"/>
<polygon fill="#2CE0FD" points="519.871,74.781 519.516,72.947 519.037,75.677 "/>
<path fill="#FFFFFF" d="M645.241,169.674c4.163,6.71,13.823,9.708,20.668,5.713c4.96-2.916,7.749-8.964,7.263-14.72"/>
<path fill="#83D5F7" d="M645.241,169.674c12.223,2.588,18.507,2.454,27.931-9.022c6.857,7.498,1.467,19.963-8.193,22.636
	C655.713,186.043,644.416,179.593,645.241,169.674"/>
<path fill="#FFFFFF" d="M721.825,147.037c5.299,5.856,15.353,7.087,21.346,1.944c4.373-3.77,6.02-10.229,4.528-15.792"/>
<path fill="#83D5F7" d="M721.825,147.037c12.47,0.385,18.647-0.896,25.874-13.848c8.101,6.141,5.002,19.361-4.018,23.717
	C735.032,161.28,722.792,156.973,721.825,147.037"/>
<path fill="#FFFFFF" d="M652.53,66.572c15.13-14.468,38.759,3.886,32.673,22.502c-2.083,6.409-8.353,11.502-15.118,11.318
	c-6.743-0.193-13.011-6.417-12.412-13.144c0.345-3.846,2.958-7.523,6.666-8.612c3.703-1.123,8.18,0.829,9.512,4.439
	c0.788,2.162,0.042,5.094-2.157,5.68"/>
<path fill="#83D5F7" d="M652.53,66.572c6.035-10.683,22.896-10.355,31.207-1.785c17.563,13.538,6.136,48.305-19.177,40.824
	c-16.047-4.959-16.312-31.852,2.853-30.469c6.479,0.503,11.949,11.662,4.269,13.605c4.004-4.164-1.688-8.403-4.779-7.188
	c-6.82,1.802-4.529,11.285,1.662,12.299c10.748,1.415,15.037-13.429,7.774-22.066C671.656,65.323,662.097,60.983,652.53,66.572"/>
<path fill="#FFFFFF" d="M707.885,239.065c12.407-10.413,29.187-10.898,37.459-1.03l-44.932,37.757
	C692.126,265.941,695.473,249.486,707.885,239.065"/>
<path fill="#83D5F7" d="M591.876,304.066c-13.479-24.327,0.403-57.276,31.312-46.529c19.253,6.711,26.008,26.164,46.189,18.013
	c11.557-4.701,20.785-7.507,27.026-17.895l10.329,9.34c-12.565,25.007-43.219,54.295-59.397,58.593"/>
<path fill="#FFFFFF" d="M591.876,304.066c-19.926-27.763,3.757-66.282,38.27-49.092c13.589,6.267,22.544,18.607,31.835,16.579
	c9.164-2.68,24.24-7.396,29.594-16.788l3.681-5.982c4.75,4.482,13.271,12.643,18.033,17.167
	c-14.593,26.104-37.012,50.784-65.953,59.639c12.839-6.132,22.369-16.813,31.622-27.068c8.979-10.563,17.253-21.89,23.052-33.887
	l1.189,6.267l-10.565-9.057l8.604-1.281c-8.772,13.848-22.269,18.463-37.842,22.535c-16.688,2.043-25.798-12.667-37.816-18.941
	C597.972,248.398,580.763,279.494,591.876,304.066"/>
<path fill="#83D5F7" d="M521.166,361.57c4.934-14.937,19.251-26.297,34.921-27.713c15.641-1.398,31.769,7.222,39.288,21.019
	c10.902,20.032,3.237,45.172-8.378,64.792c-15.185,25.627-32.698,43.647-58.292,58.868c-5.98,3.578-25.132,18.121-32.09,17.854
	c-11.41-0.387-9.835-13.271,0.603-25.469c7.435-8.688-1.093-26.204,10.342-26.725c0,0,8.86,2.514,17.053-7.984"/>
<path fill="#FFFFFF" d="M521.166,361.536c7.31-32.052,52.543-41.436,73.375-15.532c22.086,25.668,7.469,62.128-8.601,86.214
	c-15.431,25.534-41.452,43.294-66.044,58.207c-6.479,3.811-12.076,7.89-21.12,10.104c-13.178,1.515-16.755-11.588-11.431-20.71
	c2.677-6.853,9.404-10.464,10.501-17.854c1.231-6.367-0.234-19.276,9.643-19.159c6.146,1.668,12.951-1.818,17.124-6.594
	c-2.936,5.471-11.453,10.641-17.002,9.358c-6.727,0.637-3.787,9.877-4.516,17.023c0.499,9.886-12.813,18.062-10.208,27.855
	c0.209,1.373,2.546,1.818,4.402,1.601c29.937-16.151,60.218-37.214,79.025-66.275c14.778-21.078,28.083-51.263,11.541-74.2
	C570.66,328.043,532.057,334.234,521.166,361.536"/>
<path fill="#FFFFFF" d="M688.42,222.679c-8.022,9.123-22.695,2.806-25.824-7.381"/>
<path fill="#83D5F7" d="M688.42,222.679c0.196,13.588-20.378,13.872-25.325,3.283c-1.91-3.05-2.317-7.263-0.499-10.665
	c5.47,2.589,8.741,2.84,13.312,4.356C680.343,221.296,682.334,222.912,688.42,222.679"/>
<rect x="-424.523" y="-1604.361" fill="none" width="2227.98" height="2227.979"/>
</svg>
